<?xml version="1.0" encoding="utf-8"?>
<!-- Generator: Adobe Illustrator 25.4.1, SVG Export Plug-In . SVG Version: 6.00 Build 0)  -->
<svg version="1.1" id="Calque_1" xmlns="http://www.w3.org/2000/svg" xmlns:xlink="http://www.w3.org/1999/xlink" x="0px" y="0px"
	 viewBox="0 0 80.3 82.7" style="enable-background:new 0 0 80.3 82.7;" xml:space="preserve">
<style type="text/css">
	.st0{opacity:0.5;fill:none;stroke:#FDF0D5;stroke-width:0.2;stroke-miterlimit:10;}
</style>
<g id="Calque_2_-_copie_2">
	<path class="st0" d="M49,12.9C58.1,7.2,69.5,2.5,79.9,0l2-0.6c-1,0-1.7,0-2.6,0H74c-11.2,0-27.1-19-37.1-14.1
		c-9.7-4.8-16.3,8.8-27.9,8.8C7.3-5.8,4.2-6,3.3-6S0.6-0.2-0.3-0.2l1.7,0.4c10.4,2.5,20.8,7,30,12.7C11.8,26.3,0.1,48.6,0.1,72.3
		L1,82.6c4.5-25.5,18.5-48.3,39.2-63.8c20.7,15.5,34.7,38.3,39.2,63.8l0.8-10.3C80.2,48.6,68.6,26.3,49,12.9z"/>
</g>
</svg>
